<?xml version="1.0" standalone="no"?>
<!DOCTYPE svg PUBLIC "-//W3C//DTD SVG 20010904//EN"
 "http://www.w3.org/TR/2001/REC-SVG-20010904/DTD/svg10.dtd">
<svg version="1.0" xmlns="http://www.w3.org/2000/svg"
 width="700.000000pt" height="700.000000pt" viewBox="0 0 700.000000 700.000000"
 preserveAspectRatio="xMidYMid meet">
<metadata>
Created by potrace 1.11, written by Peter Selinger 2001-2013
</metadata>
<g transform="translate(0.000000,700.000000) scale(0.100000,-0.100000)"
fill="#000000" stroke="none">
<path d="M4045 6990 c-22 -5 -62 -11 -90 -15 -27 -4 -59 -8 -70 -10 -11 -1
-44 -6 -74 -10 -30 -3 -63 -9 -75 -11 -12 -2 -41 -7 -66 -10 -25 -3 -56 -7
-70 -9 -14 -2 -41 -7 -60 -9 -19 -3 -53 -8 -75 -11 -37 -5 -322 -77 -355 -89
-8 -3 -26 -7 -40 -10 -14 -2 -61 -14 -105 -26 -44 -12 -86 -24 -95 -25 -8 -2
-15 -4 -15 -5 0 -1 -10 -3 -23 -6 -19 -3 -182 -80 -264 -125 -10 -5 -145 -72
-300 -150 -246 -123 -351 -186 -419 -249 -9 -8 -25 -22 -35 -30 -278 -222
-371 -299 -418 -346 -54 -55 -136 -145 -136 -149 0 -2 -10 -15 -23 -27 -21
-23 -123 -137 -167 -188 -12 -14 -38 -43 -59 -65 -20 -22 -90 -107 -154 -190
-64 -82 -122 -157 -129 -165 -66 -76 -166 -215 -221 -309 -37 -62 -67 -115
-67 -118 0 -2 -13 -24 -30 -48 -16 -24 -30 -47 -30 -50 0 -4 -12 -26 -27 -49
-16 -22 -33 -52 -40 -66 -10 -21 -55 -154 -58 -170 -1 -6 -6 -21 -68 -215 -28
-88 -52 -165 -53 -172 -1 -6 -7 -27 -12 -45 -11 -32 -21 -88 -26 -138 -6 -49
-20 -165 -21 -170 -1 -3 -5 -34 -9 -70 -4 -36 -10 -78 -12 -95 -17 -124 -26
-814 -11 -870 13 -46 39 -167 43 -200 2 -16 7 -37 10 -45 3 -8 8 -26 10 -40 2
-14 7 -36 11 -50 3 -14 6 -28 5 -32 -2 -7 61 -143 199 -432 16 -33 76 -137
134 -231 58 -93 108 -177 112 -185 3 -8 16 -28 27 -45 20 -28 38 -57 51 -81 7
-12 385 -394 406 -410 8 -6 19 -13 24 -15 6 -2 110 -70 233 -152 123 -81 225
-147 227 -147 2 0 37 -15 77 -34 133 -62 373 -168 443 -196 98 -39 214 -71
405 -110 58 -12 114 -24 125 -27 11 -2 36 -6 55 -9 19 -2 53 -6 75 -9 126 -16
175 -19 320 -19 145 0 371 11 385 19 3 1 45 6 94 9 50 4 110 11 135 17 25 6
57 13 71 15 14 3 57 11 95 19 39 7 99 16 135 20 123 11 136 14 231 40 137 39
420 115 448 121 13 3 32 9 43 15 10 5 18 8 18 5 0 -2 27 4 60 14 33 10 60 16
60 14 0 -3 20 9 44 26 25 16 47 30 51 30 3 0 24 12 48 27 23 14 125 75 227
134 102 60 190 112 196 116 10 8 28 19 77 45 12 7 24 15 27 18 3 3 21 14 40
24 30 17 113 79 130 96 3 3 34 28 70 55 36 28 70 55 75 61 6 6 30 26 55 45 24
19 195 183 379 366 l335 332 -19 23 c-30 34 -177 196 -240 264 -16 17 -61 67
-100 109 -38 43 -84 93 -102 111 l-32 34 57 72 c81 103 112 146 112 153 0 3
18 33 40 66 22 33 40 62 40 64 0 2 27 47 60 99 33 53 60 100 60 106 0 5 4 10
8 10 8 0 94 162 292 556 78 156 89 184 115 314 1 3 4 19 8 35 4 17 10 41 13
55 8 39 36 212 39 245 2 17 4 30 5 30 1 0 3 14 5 30 2 17 7 48 10 70 3 22 8
54 10 70 3 17 9 62 15 101 6 41 9 135 6 220 -14 367 -17 431 -27 464 -6 19
-13 49 -16 65 -3 17 -9 38 -15 48 -5 10 -12 31 -14 45 -3 15 -14 54 -25 86
-10 33 -19 65 -19 73 0 7 -4 21 -9 31 -5 9 -14 37 -21 61 -6 24 -48 102 -93
173 -45 71 -100 158 -122 193 -22 35 -49 75 -60 87 -11 13 -74 91 -140 173
-149 187 -166 204 -350 350 -82 66 -152 122 -155 125 -3 3 -23 20 -45 37 -43
33 -92 57 -315 153 -41 18 -102 45 -135 60 -33 16 -71 31 -85 33 -14 3 -45 10
-70 17 -25 7 -52 14 -60 15 -8 2 -15 4 -15 5 0 2 -12 4 -55 13 -14 3 -32 8
-40 11 -8 3 -26 8 -40 10 -14 3 -45 10 -70 17 -25 6 -54 12 -64 15 -10 2 -33
8 -50 13 -17 6 -42 12 -56 15 -14 3 -47 9 -75 14 -27 5 -57 10 -65 10 -8 0
-34 3 -57 6 -96 13 -130 17 -173 21 -43 3 -110 11 -175 22 -56 9 -170 10 -210
3z m-105 -1454 c51 -10 70 -13 115 -21 65 -10 82 -13 143 -24 31 -6 75 -13 97
-17 22 -3 78 -17 125 -30 47 -14 122 -36 168 -49 51 -14 111 -41 157 -70 41
-25 75 -48 75 -49 0 -2 -22 3 -49 10 -27 7 -74 14 -104 17 l-55 4 -68 -67 -69
-67 -40 14 c-22 8 -47 16 -55 18 -8 1 -42 11 -75 21 -33 10 -64 19 -70 20 -5
1 -55 16 -110 34 -89 27 -118 31 -260 36 -360 12 -379 10 -535 -53 -8 -4 -17
-7 -20 -8 -60 -15 -203 -71 -224 -88 -16 -12 -45 -35 -66 -52 -20 -16 -56 -46
-80 -65 -49 -40 -175 -142 -206 -168 -11 -9 -40 -33 -63 -52 -24 -19 -55 -46
-70 -60 -14 -14 -58 -52 -96 -84 -39 -33 -74 -64 -80 -70 -5 -6 -37 -34 -70
-62 -33 -29 -87 -87 -120 -129 -33 -43 -69 -88 -80 -101 -11 -12 -27 -32 -35
-44 -8 -12 -25 -34 -38 -48 -35 -40 -122 -170 -122 -182 0 -5 -4 -10 -9 -10
-5 0 -11 -8 -14 -17 -6 -19 -38 -74 -47 -83 -6 -5 -32 -48 -70 -116 -10 -17
-23 -40 -29 -50 -23 -40 -128 -311 -134 -344 -8 -48 -14 -79 -38 -200 -27
-132 -28 -144 -31 -322 -2 -80 -6 -144 -10 -142 -4 3 -17 37 -28 77 -12 40
-23 77 -24 82 -2 6 -4 12 -4 15 -1 3 -11 32 -22 64 -23 68 -26 86 -36 251 -14
216 -9 419 11 495 2 8 6 36 9 63 15 119 19 146 33 212 8 39 17 80 19 93 3 13
18 83 35 155 17 73 33 146 36 162 3 17 16 55 30 85 14 30 33 73 43 95 52 120
66 139 204 278 118 120 231 217 251 217 5 0 131 82 150 97 33 27 93 55 190 88
61 21 175 60 255 87 80 27 156 52 170 54 14 3 61 13 105 24 266 63 262 62 354
79 44 8 536 5 581 -3z m1597 -1071 c24 -71 48 -150 54 -175 5 -25 12 -56 15
-70 25 -118 30 -162 28 -276 -1 -71 -5 -154 -8 -184 -3 -30 -8 -93 -11 -140
-6 -99 -14 -171 -20 -180 -2 -4 -7 -21 -10 -38 -9 -55 -37 -157 -44 -162 -4
-3 -15 -25 -26 -50 -38 -91 -189 -197 -266 -186 -134 19 -161 33 -183 89 -14
36 -14 46 4 121 10 45 21 93 23 106 3 14 14 63 25 110 11 47 25 110 32 140 7
30 21 93 32 140 11 47 22 96 25 110 2 13 13 60 23 105 10 45 21 92 24 105 3
14 11 54 20 90 21 95 38 170 40 183 2 7 6 23 9 37 4 14 23 99 42 190 20 91 38
172 41 180 10 30 87 -112 131 -245z m-2112 -440 c40 -6 112 -29 150 -50 98
-52 153 -130 171 -238 10 -61 8 -81 -13 -180 -14 -62 -26 -123 -28 -137 -2
-14 -4 -25 -5 -25 -1 0 -3 -16 -6 -35 -8 -67 -35 -203 -48 -244 -8 -22 -17
-54 -22 -71 -4 -16 -8 -32 -9 -35 -1 -3 -7 -31 -15 -62 -7 -31 -16 -57 -19
-56 -3 0 -8 0 -11 -2 -60 -23 -178 -18 -229 10 -12 6 -21 9 -21 6 0 -3 -24 11
-52 30 -29 19 -56 34 -61 34 -9 0 -42 70 -39 83 1 4 -3 7 -8 7 -6 0 -10 8 -10
18 0 10 -5 23 -11 29 -19 19 -15 334 6 403 2 8 7 38 10 66 3 28 7 59 9 70 2
10 19 93 36 184 42 217 46 219 225 195z m415 -2108 c133 -120 278 -212 365
-233 6 -2 42 -12 80 -24 39 -11 84 -23 100 -26 17 -2 47 -9 69 -15 21 -6 55
-10 75 -9 20 1 56 1 81 0 41 -2 42 -2 17 -10 -15 -5 -42 -11 -60 -14 -18 -3
-81 -17 -142 -31 -60 -14 -141 -27 -180 -30 -38 -2 -97 -7 -130 -9 -254 -20
-360 -22 -525 -12 -52 3 -151 8 -220 11 -69 3 -136 8 -150 10 -14 3 -41 7 -60
10 -45 8 -57 20 -22 21 51 3 257 72 317 106 147 85 175 105 260 189 50 49 92
89 95 89 3 0 16 -10 30 -23z"/>
</g>
</svg>
